<svg width="78" height="84" viewBox="0 0 78 84" fill="none" xmlns="http://www.w3.org/2000/svg">
<mask id="mask0_1149_2615" style="mask-type:alpha" maskUnits="userSpaceOnUse" x="9" y="10" width="60" height="75">
<path d="M46.0905 54.1841V59.7008H47.2723C59.0209 59.7008 68.545 69.3714 68.545 81.3008V84.0008H9.4541V81.3008C9.4541 69.3714 18.9782 59.7008 30.7268 59.7008H31.9086V54.1841C26.8158 51.7275 23.155 46.7069 22.5443 40.7652C20.8233 40.5181 19.4996 39.0164 19.4996 37.2008V33.0008C19.4996 31.217 20.7773 29.7362 22.4541 29.4506V27.6008C22.4541 18.3224 29.8618 10.8008 38.9996 10.8008C48.1374 10.8008 55.545 18.3224 55.545 27.6008V29.4506C57.2218 29.7362 58.4996 31.217 58.4996 33.0008V37.2008C58.4996 39.0164 57.1758 40.5181 55.4549 40.7652C54.8441 46.7069 51.1833 51.7275 46.0905 54.1841Z" fill="white"/>
</mask>
<g mask="url(#mask0_1149_2615)">
<path d="M46.0905 54.1841V59.7008H47.2723C59.0209 59.7008 68.545 69.3714 68.545 81.3008V84.0008H9.4541V81.3008C9.4541 69.3714 18.9782 59.7008 30.7268 59.7008H31.9086V54.1841C26.8158 51.7275 23.155 46.7069 22.5443 40.7652C20.8233 40.5181 19.4996 39.0164 19.4996 37.2008V33.0008C19.4996 31.217 20.7773 29.7362 22.4541 29.4506V27.6008C22.4541 18.3224 29.8618 10.8008 38.9996 10.8008C48.1374 10.8008 55.545 18.3224 55.545 27.6008V29.4506C57.2218 29.7362 58.4996 31.217 58.4996 33.0008V37.2008C58.4996 39.0164 57.1758 40.5181 55.4549 40.7652C54.8441 46.7069 51.1833 51.7275 46.0905 54.1841Z" fill="#D0C6AC"/>
<path d="M87.4541 10.8008H9.4541V94.8008H87.4541V10.8008Z" fill="#EDB98A"/>
<path fill-rule="evenodd" clip-rule="evenodd" d="M55.545 34.501V41.401C55.545 50.6794 48.1374 58.201 38.9996 58.201C29.8618 58.201 22.4541 50.6794 22.4541 41.401V34.501V39.001C22.4541 48.2794 29.8618 55.801 38.9996 55.801C48.1374 55.801 55.545 48.2794 55.545 39.001V34.501Z" fill="black" fill-opacity="0.1"/>
</g>
<mask id="mask1_1149_2615" style="mask-type:alpha" maskUnits="userSpaceOnUse" x="9" y="59" width="60" height="26">
<path fill-rule="evenodd" clip-rule="evenodd" d="M50.6172 59.9815C60.7769 61.6106 68.5455 70.5421 68.5455 81.3161V84.0006H9.45459V81.3161C9.45459 70.542 17.2234 61.6103 27.3833 59.9814C27.6497 61.5022 28.3981 62.9477 29.6153 64.0623L38.2086 71.9309C38.6583 72.3427 39.3418 72.3427 39.7915 71.9309L48.3848 64.0623C48.5106 63.9471 48.6322 63.8275 48.7495 63.7035C49.7588 62.6368 50.3802 61.3362 50.6172 59.9815V59.9815Z" fill="white"/>
</mask>
<g mask="url(#mask1_1149_2615)">
<path fill-rule="evenodd" clip-rule="evenodd" d="M50.6172 59.9815C60.7769 61.6106 68.5455 70.5421 68.5455 81.3161V84.0006H9.45459V81.3161C9.45459 70.542 17.2234 61.6103 27.3833 59.9814C27.6497 61.5022 28.3981 62.9477 29.6153 64.0623L38.2086 71.9309C38.6583 72.3427 39.3418 72.3427 39.7915 71.9309L48.3848 64.0623C48.5106 63.9471 48.6322 63.8275 48.7495 63.7035C49.7588 62.6368 50.3802 61.3362 50.6172 59.9815V59.9815Z" fill="#E6E6E6"/>
<path d="M78 51H0V84H78V51Z" fill="#B1E2FF"/>
</g>
<path fill-rule="evenodd" clip-rule="evenodd" d="M34.8638 44.7002C34.8638 47.0198 36.7157 48.9002 39.0001 48.9002C41.2846 48.9002 43.1365 47.0198 43.1365 44.7002" fill="black" fill-opacity="0.7"/>
<path fill-rule="evenodd" clip-rule="evenodd" d="M35.4546 39.001C35.4546 40.3265 37.0419 41.401 39 41.401C40.9581 41.401 42.5455 40.3265 42.5455 39.001" fill="black" fill-opacity="0.16"/>
<path fill-rule="evenodd" clip-rule="evenodd" d="M30.5033 33.1035C30.2734 33.4071 30.1367 33.7872 30.1367 34.1998C30.1367 35.1939 30.9304 35.9998 31.9094 35.9998C32.8885 35.9998 33.6821 35.1939 33.6821 34.1998C33.6821 34.1127 33.676 34.0271 33.6643 33.9434C33.6666 33.8766 33.6555 33.8011 33.6276 33.7219C33.6143 33.6842 33.6 33.647 33.5848 33.6102C33.4863 33.3213 33.3173 33.0659 33.0987 32.865C32.4704 32.195 31.4681 31.7998 30.4314 31.7998C29.0034 31.7998 27.775 32.5944 27.2295 33.734C27.0699 34.0673 27.3437 34.2899 27.6069 34.0713C28.3266 33.4734 29.3263 33.1029 30.4314 33.1029C30.4554 33.1029 30.4794 33.1031 30.5033 33.1035Z" fill="black" fill-opacity="0.6"/>
<path fill-rule="evenodd" clip-rule="evenodd" d="M47.6395 33.1035C47.4096 33.4071 47.2729 33.7872 47.2729 34.1998C47.2729 35.1939 48.0666 35.9998 49.0456 35.9998C50.0247 35.9998 50.8184 35.1939 50.8184 34.1998C50.8184 34.1127 50.8123 34.0271 50.8005 33.9434C50.8028 33.8766 50.7917 33.8011 50.7638 33.7219C50.7505 33.6842 50.7363 33.647 50.7211 33.6102C50.6225 33.3213 50.4535 33.0659 50.2349 32.865C49.6067 32.195 48.6044 31.7998 47.5676 31.7998C46.1397 31.7998 44.9112 32.5944 44.3657 33.734C44.2061 34.0673 44.4799 34.2899 44.7431 34.0713C45.4629 33.4734 46.4625 33.1029 47.5676 33.1029C47.5917 33.1029 47.6156 33.1031 47.6395 33.1035Z" fill="black" fill-opacity="0.6"/>
<path fill-rule="evenodd" clip-rule="evenodd" d="M29.181 25.0741L29.4501 24.9533C30.9988 24.329 33.3463 24.5907 34.7817 25.2903C34.9493 25.372 34.8347 25.6362 34.6631 25.6227C30.2552 25.2774 27.2877 28.0664 26.2795 29.9547C26.2496 30.0107 26.1593 30.0171 26.137 29.9648C25.4553 28.3692 27.4517 25.7694 29.181 25.0741Z" fill="black" fill-opacity="0.6"/>
<path fill-rule="evenodd" clip-rule="evenodd" d="M48.8195 25.0741L48.5504 24.9533C47.0017 24.329 44.6541 24.5907 43.2188 25.2903C43.0512 25.372 43.1658 25.6362 43.3374 25.6227C47.7453 25.2774 50.7128 28.0664 51.721 29.9547C51.7509 30.0107 51.8412 30.0171 51.8635 29.9648C52.5452 28.3692 50.5488 25.7694 48.8195 25.0741Z" fill="black" fill-opacity="0.6"/>
<mask id="mask2_1149_2615" style="mask-type:alpha" maskUnits="userSpaceOnUse" x="0" y="0" width="78" height="84">
<path d="M78 0H0V84H78V0Z" fill="white"/>
</mask>
<g mask="url(#mask2_1149_2615)">
<path fill-rule="evenodd" clip-rule="evenodd" d="M55.5454 29.3806V29.4494C57.0686 29.7089 58.2624 30.9545 58.4684 32.5176C59.2237 31.6457 59.6818 30.502 59.6818 29.2496C59.6818 28.6106 59.5625 27.9999 59.3454 27.4392C60.2805 26.5373 60.8636 25.2626 60.8636 23.8496C60.8636 22.0988 59.9684 20.5603 58.6174 19.6802C58.9209 19.0349 59.0909 18.3124 59.0909 17.5496C59.0909 15.2592 57.5588 13.3321 55.4784 12.7672C55.5225 12.4679 55.5454 12.1614 55.5454 11.8496C55.5454 8.45306 52.8337 5.69961 49.4886 5.69961C48.7118 5.69961 47.9692 5.84809 47.2867 6.11863C46.1847 4.59134 44.4052 3.59961 42.3977 3.59961C41.1384 3.59961 39.9688 3.98984 39 4.6577C38.0311 3.98984 36.8615 3.59961 35.6022 3.59961C33.5947 3.59961 31.8153 4.59134 30.7132 6.11863C30.0307 5.84809 29.2881 5.69961 28.5113 5.69961C25.1662 5.69961 22.4545 8.45306 22.4545 11.8496C22.4545 12.1614 22.4774 12.4679 22.5215 12.7672C20.4411 13.3321 18.909 15.2592 18.909 17.5496C18.909 18.2071 19.0353 18.8347 19.2645 19.4087C17.6535 20.2166 16.5454 21.9017 16.5454 23.8496C16.5454 25.481 17.3226 26.928 18.5216 27.8298C18.3892 28.2796 18.3181 28.7562 18.3181 29.2496C18.3181 30.502 18.7762 31.6457 19.5315 32.5176C19.7375 30.9545 20.9313 29.7089 22.4545 29.4494V29.3806C22.4627 29.387 22.4709 29.3933 22.4791 29.3996C23.3367 15.2554 36.7996 20.3223 39 12.4005C41.2003 20.3223 54.6632 15.2554 55.5208 29.3996C55.529 29.3933 55.5372 29.387 55.5454 29.3806ZM31.909 54.1829V55.4432C31.6682 55.4803 31.4215 55.4996 31.1704 55.4996C29.1551 55.4996 27.4255 54.258 26.6829 52.487C24.1544 52.3043 22.159 50.1635 22.159 47.5496C22.159 47.1083 22.2159 46.6805 22.3226 46.2733C20.3442 45.6429 18.909 43.7664 18.909 41.5496C18.909 40.4263 19.2776 39.3903 19.8986 38.5596C20.4119 39.5609 21.3751 40.2863 22.5161 40.4598C23.0312 46.534 26.7295 51.6845 31.909 54.1829ZM46.0909 54.1829V55.4432C46.3317 55.4803 46.5784 55.4996 46.8295 55.4996C48.8448 55.4996 50.5744 54.258 51.317 52.487C53.8455 52.3043 55.8409 50.1635 55.8409 47.5496C55.8409 47.1083 55.784 46.6805 55.6773 46.2733C57.6557 45.6429 59.0909 43.7664 59.0909 41.5496C59.0909 40.4263 58.7223 39.3903 58.1013 38.5596C57.588 39.5609 56.6248 40.2863 55.4838 40.4598C54.9687 46.534 51.2704 51.6845 46.0909 54.1829Z" fill="#18150D"/>
<g opacity="0.9" filter="url(#filter0_d_1149_2615)">
<path opacity="0.9" d="M52.603 17.6692C52.603 17.6692 51.1287 20.287 54.1945 21.441C56.1982 22.1952 58.18 21.1282 58.18 21.1282C58.18 21.1282 57.5458 18.17 55.2415 17.3026C53.4381 16.6238 52.603 17.6692 52.603 17.6692Z" fill="#5DD362"/>
<path opacity="0.9" d="M58.1812 21.1159C58.1812 21.1159 57.5449 18.1658 55.2394 17.3022C54.0365 16.8516 53.26 17.1709 52.8693 17.4313C52.4686 16.7163 52.4344 16.1837 52.4416 16.1638C52.4505 16.0767 52.3847 16.0069 52.3045 15.9769C52.2845 15.9694 52.2444 15.9544 52.2171 15.9667C52.1024 15.969 52.019 16.0733 52.0229 16.1878C52.0213 16.2549 52.125 17.5367 53.3884 18.8235C55.1745 20.8032 58.1812 21.1159 58.1812 21.1159Z" fill="#42BC53"/>
</g>
<g filter="url(#filter1_d_1149_2615)">
<path fill-rule="evenodd" clip-rule="evenodd" d="M48.8121 8.08642C50.3745 7.16616 51.002 4.72595 51.002 4.72595C51.002 4.72595 48.8254 3.48869 46.494 4.62035C44.1625 5.75201 44.6076 7.73302 44.6076 7.73302C44.6076 7.73302 46.5582 9.41401 48.8121 8.08642Z" fill="#5DD362"/>
<path fill-rule="evenodd" clip-rule="evenodd" d="M43.4298 8.84104C43.4445 8.86684 43.4592 8.89265 43.4996 8.9034C43.6243 9.00231 43.8221 8.98938 43.9207 8.86247C44.2313 8.50757 44.5309 8.19354 44.8856 7.91605C45.4653 8.3332 47.0461 9.12657 48.8129 8.08755C50.3749 7.16901 51.0028 4.73223 51.0028 4.73223C51.0028 4.73223 50.6623 4.79464 50.0875 4.92591C49.93 4.94959 45.8399 5.63192 43.4766 8.50338C43.3889 8.58942 43.371 8.73781 43.4298 8.84104Z" fill="#42BC53"/>
</g>
<g filter="url(#filter2_d_1149_2615)">
<path fill-rule="evenodd" clip-rule="evenodd" d="M26.4149 16.3608C24.8525 17.2811 24.2251 19.7213 24.2251 19.7213C24.2251 19.7213 26.4016 20.9586 28.7331 19.8269C31.0645 18.6953 30.6194 16.7142 30.6194 16.7142C30.6194 16.7142 28.6689 15.0333 26.4149 16.3608Z" fill="#5DD362"/>
<path fill-rule="evenodd" clip-rule="evenodd" d="M31.7972 15.6062C31.7825 15.5804 31.7678 15.5546 31.7275 15.5439C31.6027 15.445 31.4049 15.4579 31.3063 15.5848C30.9958 15.9397 30.6962 16.2537 30.3415 16.5312C29.7617 16.1141 28.181 15.3207 26.4141 16.3597C24.8521 17.2783 24.2242 19.715 24.2242 19.715C24.2242 19.715 24.5647 19.6526 25.1395 19.5214C25.297 19.4977 29.3872 18.8153 31.7504 15.9439C31.8381 15.8578 31.8561 15.7095 31.7972 15.6062Z" fill="#42BC53"/>
</g>
<g filter="url(#filter3_d_1149_2615)">
<path d="M19.9654 14.9865C19.7185 14.6538 19.614 14.2432 19.671 13.8305C19.7281 13.4178 19.9402 13.0525 20.2677 12.8019C20.356 12.7341 20.4727 12.6787 20.605 12.6314C20.4711 12.5891 20.3527 12.5377 20.2621 12.4733C19.5682 11.98 19.3989 11.0053 19.8848 10.3007C20.3707 9.59597 21.3307 9.42423 22.0245 9.91755C22.1151 9.98198 22.2032 10.0774 22.2883 10.1908C22.2866 10.0482 22.2982 9.91809 22.3307 9.8106C22.4506 9.41215 22.7163 9.08479 23.0787 8.88937C23.441 8.6937 23.8567 8.65325 24.2492 8.77488C25.0593 9.02648 25.5169 9.90026 25.2693 10.7228C25.237 10.8298 25.1766 10.9434 25.0972 11.06C25.2295 11.0147 25.354 10.9872 25.4641 10.9853C26.3111 10.9703 27.0122 11.6577 27.0271 12.5179C27.0327 12.8594 26.9297 13.1774 26.7502 13.4378C26.4773 13.8331 26.0284 14.0958 25.5177 14.1047C25.4076 14.1066 25.2825 14.0835 25.1487 14.043C25.232 14.1568 25.2962 14.2682 25.3321 14.3739C25.4984 14.8644 25.4091 15.3824 25.1363 15.778C24.9568 16.0384 24.6975 16.2457 24.3796 16.3568C23.5786 16.6369 22.7026 16.2028 22.4269 15.3895C22.391 15.2838 22.374 15.1558 22.3706 15.0139C22.2898 15.1296 22.2052 15.2262 22.1174 15.2935C21.7896 15.5443 21.3853 15.6503 20.9789 15.5924C20.5722 15.5345 20.2123 15.3193 19.9654 14.9865Z" fill="#4ACAD3"/>
<path fill-rule="evenodd" clip-rule="evenodd" d="M23.879 11.2915C23.9478 11.0627 23.8211 10.8204 23.5957 10.7505C23.3703 10.6806 23.1317 10.8093 23.0628 11.0382C22.994 11.267 23.1314 12.2926 23.1314 12.2926C23.1314 12.2926 23.8101 11.5204 23.879 11.2915ZM24.5416 13.0308C24.7773 13.0265 24.965 12.8293 24.9609 12.5899C24.9567 12.3506 24.7624 12.16 24.5267 12.1642C24.291 12.1685 23.3728 12.6181 23.3728 12.6181C23.3728 12.6181 24.306 13.0349 24.5416 13.0308ZM22.7519 12.4253C22.7519 12.4253 22.2383 11.5311 22.0452 11.3938C21.8521 11.2565 21.5861 11.3042 21.4508 11.5003C21.3156 11.6963 21.3625 11.9665 21.5556 12.1038C21.7488 12.2411 22.7519 12.4253 22.7519 12.4253ZM23.6598 14.4767C23.8827 14.3988 24.0011 14.1522 23.9244 13.9259C23.8477 13.6995 23.1426 12.9519 23.1426 12.9519C23.1426 12.9519 23.0406 13.9818 23.1172 14.2081C23.194 14.4343 23.4369 14.5545 23.6598 14.4767ZM22.0882 13.8885C22.2764 13.7445 22.7589 12.8327 22.7589 12.8327C22.7589 12.8327 21.7628 13.0524 21.5745 13.1964C21.3862 13.3403 21.3486 13.6122 21.4905 13.8032C21.6323 13.9943 21.9 14.0325 22.0882 13.8885Z" fill="white"/>
</g>
<g filter="url(#filter4_d_1149_2615)">
<path d="M34.4277 14.7298L34.5041 14.0355L35.1877 13.9578C36.0289 13.8619 36.6976 13.3228 36.9764 12.5146C37.2912 11.6019 36.9956 10.607 36.2239 10.0301L35.6702 9.61622L35.9456 8.97609C36.3085 8.13418 36.1362 7.20742 35.4962 6.55762C34.8563 5.90781 33.9435 5.73285 33.1142 6.10111L32.4839 6.38095L32.0761 5.81855C31.5081 5.03603 30.528 4.73498 29.6291 5.0547C28.8336 5.33777 28.3022 6.01676 28.2082 6.87089L28.1316 7.56499L27.448 7.64271C26.6067 7.73843 25.938 8.27792 25.6592 9.08572C25.3822 9.8886 25.5711 10.7541 26.1522 11.3442L26.1524 11.3443C26.2318 11.4249 26.3189 11.5008 26.4115 11.57L26.9653 11.9841L26.6896 12.6243C26.3272 13.4663 26.4995 14.3931 27.1395 15.0429C27.7795 15.6927 28.6922 15.8677 29.5215 15.4997L30.1519 15.2197L30.5597 15.7821C31.1261 16.5653 32.1079 16.8657 33.0069 16.5461C33.8025 16.2627 34.3336 15.5839 34.4277 14.7298Z" fill="#FDB599"/>
<path fill-rule="evenodd" clip-rule="evenodd" d="M32.1693 12.3576C32.2301 12.5881 32.0954 12.825 31.8684 12.8868C31.6415 12.9485 31.408 12.8116 31.3473 12.5813C31.2866 12.351 31.3179 10.8004 31.3179 10.8004C31.3179 10.8004 30.5815 12.1591 30.4154 12.3278C30.2494 12.4963 29.9798 12.4965 29.8137 12.3278C29.6476 12.1591 29.6477 11.8853 29.8137 11.7168C29.9798 11.5481 31.3179 10.8004 31.3179 10.8004C31.3179 10.8004 29.791 10.8323 29.564 10.7705C29.337 10.7088 29.2023 10.4719 29.2631 10.2414C29.324 10.0109 29.5573 9.87416 29.7843 9.93593C30.0112 9.99771 31.3179 10.8004 31.3179 10.8004C31.3179 10.8004 30.5273 9.47366 30.4665 9.2432C30.4057 9.01274 30.5404 8.77583 30.7674 8.71405C30.9943 8.65228 31.2276 8.78906 31.2885 9.01952C31.3493 9.24998 31.3179 10.8004 31.3179 10.8004C31.3179 10.8004 32.0543 9.44175 32.2204 9.27306C32.3866 9.10438 32.656 9.10438 32.8221 9.27306C32.9882 9.44175 32.9882 9.71532 32.8221 9.884C32.656 10.0527 31.3179 10.8004 31.3179 10.8004C31.3179 10.8004 32.845 10.7687 33.0718 10.8303C33.2986 10.8919 33.4335 11.129 33.3726 11.3594C33.3118 11.5899 33.0785 11.7267 32.8515 11.6649C32.6246 11.6031 31.3179 10.8004 31.3179 10.8004C31.3179 10.8004 32.1083 12.127 32.1693 12.3576Z" fill="white"/>
</g>
<g filter="url(#filter5_d_1149_2615)">
<path d="M56.0648 16.7472C56.4162 16.2736 56.5649 15.6894 56.4837 15.1021C56.4026 14.5148 56.1007 13.995 55.6347 13.6382C55.5089 13.5419 55.343 13.4629 55.1546 13.3957C55.3452 13.3354 55.5137 13.2623 55.6426 13.1707C56.63 12.4686 56.8711 11.0816 56.1795 10.0788C55.488 9.07599 54.1219 8.83159 53.1345 9.53363C53.0056 9.62531 52.8803 9.76104 52.7591 9.92248C52.7616 9.71959 52.7451 9.53439 52.6989 9.38142C52.5282 8.8144 52.15 8.34854 51.6344 8.07044C51.1188 7.79199 50.5272 7.73442 49.9687 7.90752C48.8158 8.26556 48.1647 9.50901 48.5169 10.6796C48.5629 10.8318 48.6489 10.9935 48.7619 11.1595C48.5735 11.0949 48.3965 11.0558 48.2398 11.0531C47.0344 11.0317 46.0367 12.01 46.0154 13.2341C46.0075 13.72 46.1541 14.1726 46.4096 14.5432C46.7979 15.1058 47.4367 15.4796 48.1635 15.4923C48.3202 15.495 48.4982 15.4621 48.6886 15.4044C48.5701 15.5663 48.4787 15.725 48.4277 15.8754C48.191 16.5733 48.318 17.3105 48.7062 17.8735C48.9617 18.2441 49.3307 18.5391 49.7831 18.6972C50.923 19.0957 52.1696 18.478 52.5619 17.3207C52.613 17.1702 52.6371 16.9881 52.642 16.7861C52.757 16.9507 52.8774 17.0883 53.0024 17.184C53.4689 17.541 54.0441 17.6918 54.6226 17.6094C55.2013 17.527 55.7134 17.2207 56.0648 16.7472Z" fill="#F7D30C"/>
<path fill-rule="evenodd" clip-rule="evenodd" d="M50.4953 11.4885C50.3973 11.1627 50.5777 10.818 50.8985 10.7185C51.2192 10.619 51.5588 10.8022 51.6568 11.1279C51.7547 11.4536 51.5592 12.9131 51.5592 12.9131C51.5592 12.9131 50.5932 11.8142 50.4953 11.4885ZM49.5523 13.9635C49.2169 13.9575 48.9497 13.6768 48.9557 13.3362C48.9616 12.9956 49.2381 12.7244 49.5735 12.7304C49.9089 12.7364 51.2155 13.3763 51.2155 13.3763C51.2155 13.3763 49.8876 13.9694 49.5523 13.9635ZM52.0992 13.1018C52.0992 13.1018 52.83 11.8294 53.1049 11.634C53.3797 11.4387 53.7583 11.5064 53.9507 11.7855C54.1431 12.0645 54.0764 12.449 53.8016 12.6443C53.5267 12.8397 52.0992 13.1018 52.0992 13.1018ZM50.8072 16.0211C50.49 15.9103 50.3215 15.5594 50.4307 15.2373C50.5398 14.9152 51.5431 13.8513 51.5431 13.8513C51.5431 13.8513 51.6884 15.3169 51.5793 15.639C51.47 15.9609 51.1244 16.1319 50.8072 16.0211ZM53.0438 15.1841C52.7758 14.9792 52.0892 13.6817 52.0892 13.6817C52.0892 13.6817 53.5068 13.9943 53.7747 14.1992C54.0426 14.4041 54.0962 14.7909 53.8942 15.0627C53.6924 15.3348 53.3115 15.3891 53.0438 15.1841Z" fill="white"/>
</g>
<g filter="url(#filter6_d_1149_2615)">
<path d="M49.6769 9.46417C50.216 7.36916 47.9059 5.73981 47.0316 5.20875C47.1836 4.32856 47.5259 1.44045 45.7116 0.374004C43.908 -0.686234 41.6363 1.03513 40.9502 1.61846C40.891 1.58087 40.8215 1.53801 40.7423 1.49148C39.8364 0.958948 37.561 -0.113903 36.0009 1.42116C34.333 3.06159 35.3177 5.62204 35.6923 6.43048C35.0542 7.03374 33.215 9.00806 33.9732 11.1075C34.1818 11.6862 34.5675 12.1441 35.1201 12.469C36.311 13.169 37.9587 13.0562 38.5837 12.981C38.8772 13.5451 39.7154 14.9947 40.9142 15.6994C41.4077 15.9894 41.9115 16.1232 42.4124 16.0968C44.4525 15.9894 45.3422 13.0983 45.5649 12.2231C46.4102 12.1042 49.1358 11.5635 49.6769 9.46417Z" fill="#FF7398"/>
<path fill-rule="evenodd" clip-rule="evenodd" d="M41.8849 7.68122C41.8849 7.68122 42.9736 10.1376 41.9893 10.2945C41.0042 10.4505 41.5578 7.71679 41.5578 7.71679C41.5578 7.71679 39.4566 9.51903 39.1499 8.62541C38.8428 7.73161 41.4252 7.41104 41.4252 7.41104C41.4252 7.41104 39.0652 6.00326 39.8316 5.36012C40.5981 4.71698 41.6682 7.1876 41.6682 7.1876C41.6682 7.1876 42.2427 4.51188 43.0924 5.01136C43.9421 5.51083 41.9528 7.35489 41.9528 7.35489C41.9528 7.35489 44.5755 7.05801 44.4255 8.06051C44.2764 9.06306 41.8849 7.68122 41.8849 7.68122Z" fill="white"/>
</g>
</g>
<defs>
<filter id="filter0_d_1149_2615" x="48.3441" y="14.1225" width="13.5159" height="13.1067" filterUnits="userSpaceOnUse" color-interpolation-filters="sRGB">
<feFlood flood-opacity="0" result="BackgroundImageFix"/>
<feColorMatrix in="SourceAlpha" type="matrix" values="0 0 0 0 0 0 0 0 0 0 0 0 0 0 0 0 0 0 127 0" result="hardAlpha"/>
<feOffset dy="1.83942"/>
<feGaussianBlur stdDeviation="1.83942"/>
<feColorMatrix type="matrix" values="0 0 0 0 0 0 0 0 0 0 0 0 0 0 0 0 0 0 0.2 0"/>
<feBlend mode="normal" in2="BackgroundImageFix" result="effect1_dropShadow_1149_2615"/>
<feBlend mode="normal" in="SourceGraphic" in2="effect1_dropShadow_1149_2615" result="shape"/>
</filter>
<filter id="filter1_d_1149_2615" x="39.7167" y="2.30414" width="14.9651" height="12.1829" filterUnits="userSpaceOnUse" color-interpolation-filters="sRGB">
<feFlood flood-opacity="0" result="BackgroundImageFix"/>
<feColorMatrix in="SourceAlpha" type="matrix" values="0 0 0 0 0 0 0 0 0 0 0 0 0 0 0 0 0 0 127 0" result="hardAlpha"/>
<feOffset dy="1.83942"/>
<feGaussianBlur stdDeviation="1.83942"/>
<feColorMatrix type="matrix" values="0 0 0 0 0 0 0 0 0 0 0 0 0 0 0 0 0 0 0.2 0"/>
<feBlend mode="normal" in2="BackgroundImageFix" result="effect1_dropShadow_1149_2615"/>
<feBlend mode="normal" in="SourceGraphic" in2="effect1_dropShadow_1149_2615" result="shape"/>
</filter>
<filter id="filter2_d_1149_2615" x="20.5453" y="13.6391" width="14.9651" height="12.1829" filterUnits="userSpaceOnUse" color-interpolation-filters="sRGB">
<feFlood flood-opacity="0" result="BackgroundImageFix"/>
<feColorMatrix in="SourceAlpha" type="matrix" values="0 0 0 0 0 0 0 0 0 0 0 0 0 0 0 0 0 0 127 0" result="hardAlpha"/>
<feOffset dy="1.83942"/>
<feGaussianBlur stdDeviation="1.83942"/>
<feColorMatrix type="matrix" values="0 0 0 0 0 0 0 0 0 0 0 0 0 0 0 0 0 0 0.2 0"/>
<feBlend mode="normal" in2="BackgroundImageFix" result="effect1_dropShadow_1149_2615"/>
<feBlend mode="normal" in="SourceGraphic" in2="effect1_dropShadow_1149_2615" result="shape"/>
</filter>
<filter id="filter3_d_1149_2615" x="15.9286" y="6.86664" width="14.7776" height="15.093" filterUnits="userSpaceOnUse" color-interpolation-filters="sRGB">
<feFlood flood-opacity="0" result="BackgroundImageFix"/>
<feColorMatrix in="SourceAlpha" type="matrix" values="0 0 0 0 0 0 0 0 0 0 0 0 0 0 0 0 0 0 127 0" result="hardAlpha"/>
<feOffset dy="1.83942"/>
<feGaussianBlur stdDeviation="1.83942"/>
<feColorMatrix type="matrix" values="0 0 0 0 0 0 0 0 0 0 0 0 0 0 0 0 0 0 0.2 0"/>
<feBlend mode="normal" in2="BackgroundImageFix" result="effect1_dropShadow_1149_2615"/>
<feBlend mode="normal" in="SourceGraphic" in2="effect1_dropShadow_1149_2615" result="shape"/>
</filter>
<filter id="filter4_d_1149_2615" x="21.8549" y="3.08929" width="18.9246" height="19.1008" filterUnits="userSpaceOnUse" color-interpolation-filters="sRGB">
<feFlood flood-opacity="0" result="BackgroundImageFix"/>
<feColorMatrix in="SourceAlpha" type="matrix" values="0 0 0 0 0 0 0 0 0 0 0 0 0 0 0 0 0 0 127 0" result="hardAlpha"/>
<feOffset dy="1.83942"/>
<feGaussianBlur stdDeviation="1.83942"/>
<feColorMatrix type="matrix" values="0 0 0 0 0 0 0 0 0 0 0 0 0 0 0 0 0 0 0.2 0"/>
<feBlend mode="normal" in2="BackgroundImageFix" result="effect1_dropShadow_1149_2615"/>
<feBlend mode="normal" in="SourceGraphic" in2="effect1_dropShadow_1149_2615" result="shape"/>
</filter>
<filter id="filter5_d_1149_2615" x="42.3363" y="5.97015" width="17.9167" height="18.3665" filterUnits="userSpaceOnUse" color-interpolation-filters="sRGB">
<feFlood flood-opacity="0" result="BackgroundImageFix"/>
<feColorMatrix in="SourceAlpha" type="matrix" values="0 0 0 0 0 0 0 0 0 0 0 0 0 0 0 0 0 0 127 0" result="hardAlpha"/>
<feOffset dy="1.83942"/>
<feGaussianBlur stdDeviation="1.83942"/>
<feColorMatrix type="matrix" values="0 0 0 0 0 0 0 0 0 0 0 0 0 0 0 0 0 0 0.2 0"/>
<feBlend mode="normal" in2="BackgroundImageFix" result="effect1_dropShadow_1149_2615"/>
<feBlend mode="normal" in="SourceGraphic" in2="effect1_dropShadow_1149_2615" result="shape"/>
</filter>
<filter id="filter6_d_1149_2615" x="30.1141" y="-1.80328" width="23.322" height="23.4211" filterUnits="userSpaceOnUse" color-interpolation-filters="sRGB">
<feFlood flood-opacity="0" result="BackgroundImageFix"/>
<feColorMatrix in="SourceAlpha" type="matrix" values="0 0 0 0 0 0 0 0 0 0 0 0 0 0 0 0 0 0 127 0" result="hardAlpha"/>
<feOffset dy="1.83942"/>
<feGaussianBlur stdDeviation="1.83942"/>
<feColorMatrix type="matrix" values="0 0 0 0 0 0 0 0 0 0 0 0 0 0 0 0 0 0 0.2 0"/>
<feBlend mode="normal" in2="BackgroundImageFix" result="effect1_dropShadow_1149_2615"/>
<feBlend mode="normal" in="SourceGraphic" in2="effect1_dropShadow_1149_2615" result="shape"/>
</filter>
</defs>
</svg>

