<svg width="180" height="195" viewBox="0 0 180 195" fill="none" xmlns="http://www.w3.org/2000/svg">
<path d="M76.3612 168.113L100.091 153.794L89.6914 83.1382L76.3612 168.113Z" fill="url(#paint0_linear_0_1)"/>
<path d="M90.6971 82.24L132.838 102.121L97.0923 129.886L90.6971 82.24Z" fill="#0063BF"/>
<path d="M136.581 96.7234L99.9455 27.2059L54.2413 9.57833L96.0656 78.0935L136.581 96.7234Z" fill="url(#paint1_linear_0_1)"/>
<path d="M65.7954 32.7253L60.1019 35.5349L96.1429 83.1381L65.7954 32.7253Z" fill="#FFEE00"/>
<path d="M139.191 58.147L146.882 76.9932L137.307 70.9338L139.191 58.147Z" fill="#1C5E99"/>
<path d="M135.194 95.3104L140.129 61.841L117.423 61.4115L135.194 95.3104Z" fill="#3071E6"/>
<path d="M123.336 138.096C121.907 138.096 120.781 137.685 119.96 136.864C119.139 136.043 118.728 134.827 118.728 133.216V126.8H119.912V133.168C119.912 134.491 120.211 135.467 120.808 136.096C121.405 136.725 122.248 137.04 123.336 137.04C124.435 137.04 125.283 136.725 125.88 136.096C126.477 135.467 126.776 134.491 126.776 133.168V126.8H127.928V133.216C127.928 134.827 127.517 136.043 126.696 136.864C125.885 137.685 124.765 138.096 123.336 138.096ZM129.47 138L134.59 126.8H135.758L140.878 138H139.63L134.926 127.488H135.406L130.702 138H129.47ZM131.486 135.008L131.838 134.048H138.35L138.702 135.008H131.486ZM146.826 138.08C146.101 138.08 145.445 137.915 144.858 137.584C144.272 137.243 143.802 136.757 143.45 136.128C143.109 135.488 142.938 134.709 142.938 133.792C142.938 132.875 143.109 132.101 143.45 131.472C143.792 130.832 144.256 130.347 144.842 130.016C145.429 129.685 146.09 129.52 146.826 129.52C147.626 129.52 148.341 129.701 148.97 130.064C149.61 130.416 150.112 130.917 150.474 131.568C150.837 132.208 151.018 132.949 151.018 133.792C151.018 134.645 150.837 135.392 150.474 136.032C150.112 136.672 149.61 137.173 148.97 137.536C148.341 137.899 147.626 138.08 146.826 138.08ZM142.49 141.104V129.6H143.578V132.128L143.466 133.808L143.626 135.504V141.104H142.49ZM146.746 137.072C147.344 137.072 147.877 136.939 148.346 136.672C148.816 136.395 149.189 136.011 149.466 135.52C149.744 135.019 149.882 134.443 149.882 133.792C149.882 133.141 149.744 132.571 149.466 132.08C149.189 131.589 148.816 131.205 148.346 130.928C147.877 130.651 147.344 130.512 146.746 130.512C146.149 130.512 145.61 130.651 145.13 130.928C144.661 131.205 144.288 131.589 144.01 132.08C143.744 132.571 143.61 133.141 143.61 133.792C143.61 134.443 143.744 135.019 144.01 135.52C144.288 136.011 144.661 136.395 145.13 136.672C145.61 136.939 146.149 137.072 146.746 137.072ZM157.67 138.08C156.945 138.08 156.289 137.915 155.702 137.584C155.115 137.243 154.646 136.757 154.294 136.128C153.953 135.488 153.782 134.709 153.782 133.792C153.782 132.875 153.953 132.101 154.294 131.472C154.635 130.832 155.099 130.347 155.686 130.016C156.273 129.685 156.934 129.52 157.67 129.52C158.47 129.52 159.185 129.701 159.814 130.064C160.454 130.416 160.955 130.917 161.318 131.568C161.681 132.208 161.862 132.949 161.862 133.792C161.862 134.645 161.681 135.392 161.318 136.032C160.955 136.672 160.454 137.173 159.814 137.536C159.185 137.899 158.47 138.08 157.67 138.08ZM153.334 141.104V129.6H154.422V132.128L154.31 133.808L154.47 135.504V141.104H153.334ZM157.59 137.072C158.187 137.072 158.721 136.939 159.19 136.672C159.659 136.395 160.033 136.011 160.31 135.52C160.587 135.019 160.726 134.443 160.726 133.792C160.726 133.141 160.587 132.571 160.31 132.08C160.033 131.589 159.659 131.205 159.19 130.928C158.721 130.651 158.187 130.512 157.59 130.512C156.993 130.512 156.454 130.651 155.974 130.928C155.505 131.205 155.131 131.589 154.854 132.08C154.587 132.571 154.454 133.141 154.454 133.792C154.454 134.443 154.587 135.019 154.854 135.52C155.131 136.011 155.505 136.395 155.974 136.672C156.454 136.939 156.993 137.072 157.59 137.072Z" fill="#002295"/>
<defs>
<linearGradient id="paint0_linear_0_1" x1="92.7874" y1="90.3648" x2="55.3464" y2="171.494" gradientUnits="userSpaceOnUse">
<stop stop-color="#2254CD"/>
<stop offset="1" stop-color="#3E8FFF"/>
</linearGradient>
<linearGradient id="paint1_linear_0_1" x1="78.9248" y1="18.8435" x2="122.985" y2="80.3151" gradientUnits="userSpaceOnUse">
<stop stop-color="#39A5B4"/>
<stop offset="0.83125" stop-color="#0B6CE5"/>
<stop offset="1" stop-color="#0A67E9"/>
</linearGradient>
</defs>
</svg>
