<svg width="30" height="30" viewBox="0 0 44 44" fill="none" xmlns="http://www.w3.org/2000/svg">
<path fill-rule="evenodd" clip-rule="evenodd" d="M12.3064 15.0095C11.5254 15.0095 10.8929 14.3577 11.0139 13.5877C11.7702 8.91 15.3342 5.5 21.5189 5.5C27.7064 5.5 31.8782 9.24 31.8782 14.3413C31.8782 18.0373 30.0494 20.6332 26.9557 22.517C23.9307 24.3292 23.0672 25.5915 23.0672 28.0445V28.127C23.0672 28.4917 22.9223 28.8414 22.6644 29.0993C22.4066 29.3571 22.0568 29.502 21.6922 29.502H19.5747C19.2124 29.502 18.8647 29.359 18.6072 29.1041C18.3498 28.8492 18.2033 28.503 18.1997 28.1407L18.1914 27.5907C18.0732 24.233 19.5032 22.088 22.7152 20.1328C25.5477 18.3948 26.5569 17.0115 26.5569 14.5558C26.5569 11.8635 24.4724 9.88625 21.2604 9.88625C18.4857 9.88625 16.5579 11.341 15.9309 13.7418C15.7494 14.4403 15.1664 15.0095 14.4459 15.0095H12.3092H12.3064ZM20.6142 38.5C22.3247 38.5 23.6254 37.1965 23.6254 35.5025C23.6254 33.803 22.3247 32.4995 20.6142 32.4995C18.9477 32.4995 17.6249 33.803 17.6249 35.4998C17.6249 37.1965 18.9477 38.5 20.6142 38.5Z" fill="#2254CD"/>
</svg>
